# xmcd CD database file
#
# Track frame offsets:
#	150
#	24699
#	38868
#	59076
#	80040
#	94349
#	109312
#	135445
#	162509
#	190296
#
# Disc length: 2900 seconds
#
# Revision: 0
# Processed by: cddbd v1.5.2PL0 Copyright (c) Steve Scherf et al.
# Submitted via: CDex 1.50
#
DISCID=900b520a
DTITLE=Eddy Mitchell - Olympia janvier 1994
DYEAR=2010
DGENRE=Blues
TTITLE0=Lèche-bottes Blues (intro)
TTITLE1=Et la voix d'Elvis
TTITLE2=Tu peux préparer le café noir
TTITLE3=A crédit et en stéréo
TTITLE4=Sur la route de Memphis
TTITLE5=Je ne sais faire que l'amour
TTITLE6=Happy Birthday Rock'n'Roll
TTITLE7=Pas de Boogie Woogie
TTITLE8=Rio Grande
TTITLE9=C'est un Rocker
EXTD=YEAR: 2010
EXTT0=
EXTT1=
EXTT2=
EXTT3=
EXTT4=
EXTT5=
EXTT6=
EXTT7=
EXTT8=
EXTT9=
PLAYORDER=
